<svg width="563" height="309" viewBox="0 0 563 309" fill="none" xmlns="http://www.w3.org/2000/svg">
<path d="M45 167.216C45.9539 161.626 51.7254 157.409 56.1307 152.628C63.7796 144.328 69.1364 135.396 77.0008 127.124C88.8018 114.713 99.662 101.668 114.567 90.471C132.554 76.9584 154.929 64.0214 179.573 54.9324C181.932 54.0627 188.488 49.9632 187.999 53.1207C186.557 62.4352 183.323 71.5169 180.733 80.7153C176.393 96.1288 172.231 112.671 161.873 127.078C148.193 146.105 132.049 164.359 115.417 182.499C106.335 192.406 98.6132 203.016 92.3056 213.671C91.9014 214.354 87.8035 221.034 88.9818 219.617C92.7668 215.068 96.6364 211.176 102.354 207.353C123.923 192.932 153.717 183.417 181.042 173.533C208.566 163.578 223.528 150.299 241.643 134.882C249.862 127.887 259.337 121.691 266.996 114.442C273.596 108.195 279.87 101.891 286.166 95.5346C289.28 92.3899 291.533 88.6577 295.441 85.8254C300.13 82.427 294.455 91.7862 294.05 92.4221C280.201 114.155 275.656 138.469 268.31 161.223C265.094 171.184 261.162 181.115 256.484 190.815C253.699 196.589 249.784 202.361 246.126 207.957C242.688 213.217 247.238 204.856 248.136 203.637C270.48 173.297 314.439 150.415 354.96 128.936C367.516 122.28 382.178 117.434 394.381 110.54C407.218 103.287 417.798 94.6984 430.71 87.4049C443.662 80.0892 457.938 73.7459 470.982 66.5463C481.653 60.6563 489.791 54.0027 494.403 45.6878C496.3 42.2669 494.126 52.6772 493.784 53.4923C489.207 64.4196 482.119 75.6035 475.388 86.1041C448.584 127.92 418.678 169.276 379.231 207.353C367.732 218.452 356.739 229.368 348.235 241.359C344.15 247.118 341.612 253.208 337.336 258.919C336.185 260.456 333.972 265.323 334.399 263.657C338.243 248.639 350.096 232.836 362.921 219.943C386.756 195.981 413.187 172.013 449.03 153.929C469.533 143.584 491.202 133.523 513.881 124.941C522.975 121.5 514.316 144.541 513.34 147.472C512.008 151.476 511.036 155.289 509.089 159.225C507.274 162.895 507.781 166.971 504.76 170.375C501.818 173.691 503.647 180.169 502.751 183.94" stroke="#FFE27E" stroke-width="90" stroke-linecap="round"/>
</svg>
